<svg xmlns="http://www.w3.org/2000/svg" xmlns:xlink="http://www.w3.org/1999/xlink" width="100" height="32" viewBox="0 0 100 32"><defs><path id="nbdgc" d="M43.44 51.77c0-5.206 4.045-9.19 9.05-9.19 5.04 0 9.05 3.984 9.05 9.19 0 5.172-4.01 9.19-9.05 9.19-5.005 0-9.05-4.018-9.05-9.19m14.398 0c0-3.18-2.33-5.52-5.348-5.52-3.016 0-5.348 2.34-5.348 5.52 0 3.18 2.332 5.521 5.348 5.521 3.017 0 5.348-2.341 5.348-5.52"/><path id="nbdgd" d="M109.06 51.77c0-5.206 4.045-9.19 9.05-9.19 5.04 0 9.05 3.984 9.05 9.19 0 5.172-4.01 9.19-9.05 9.19-5.005 0-9.05-4.018-9.05-9.19m14.398 0c0-3.18-2.33-5.52-5.348-5.52-3.017 0-5.348 2.34-5.348 5.52 0 3.18 2.331 5.521 5.348 5.521s5.348-2.341 5.348-5.52"/><path id="nbdga" d="M30 36.047h3.756v24.46H30z"/><path id="nbdgf" d="M33.756 50.696l-.054.062V36.046H30v24.461h3.702v-8.072l.054.062z"/><path id="nbdgg" d="M37.336 51.6l7.542-8.561h-4.525l-5.552 6.447V53.7l5.93 6.81h4.421z"/><path id="nbdgh" d="M81.732 42.584c-2.296 0-4.113.944-5.245 2.761-.994-1.747-2.64-2.76-4.868-2.76-1.522 0-2.815.432-3.83 1.306v3.393c.694-.792 1.663-1.17 2.733-1.17 2.023 0 3.223 1.363 3.223 3.809V60.51h3.702v-9.785c0-3.18 1.543-4.612 3.737-4.612 2.023 0 3.325 1.363 3.325 3.809V60.51h3.703V49.678c0-4.368-2.606-7.094-6.48-7.094"/><path id="nbdgi" d="M66.755 45.094l-.028.041V43.04h-3.712V60.51h3.712v-9.785c0-.227.011-.444.028-.653z"/><path id="nbdgj" d="M103.948 43.039v2.585l-.038-.051v5.371c.023.215.038.433.038.656 0 3.145-2.331 5.486-5.45 5.486-3.12 0-5.451-2.341-5.451-5.486 0-3.145 2.33-5.486 5.45-5.486 1.836 0 3.394.814 4.369 2.122V44.38c-1.246-1.136-2.888-1.796-4.883-1.796-4.834 0-8.639 4.019-8.639 9.016s3.805 9.015 8.639 9.015c2.64 0 4.662-1.153 5.965-3.04v2.132c0 3.04-1.92 4.822-5.108 4.822-2.982 0-4.25-1.188-5.005-2.69l-3.188 1.886c1.44 2.796 4.354 4.228 8.124 4.228 4.491 0 8.81-2.62 8.81-8.246V43.039z"/><path id="nbdgb" d="M126.477 39.929h3.487v3.554h-3.487z"/><path id="nbdgl" d="M128.228 43.484c-.966 0-1.748-.793-1.748-1.777 0-.985.782-1.777 1.748-1.777s1.748.792 1.748 1.777c0 .984-.782 1.777-1.748 1.777zm0-3.436c-.893 0-1.623.738-1.623 1.659 0 .92.73 1.659 1.623 1.659.894 0 1.618-.739 1.618-1.66 0-.92-.724-1.658-1.618-1.658zm.723 2.57h-.258l-.378-.685h-.374v.684h-.233v-1.82h.539c.451 0 .66.28.66.57 0 .251-.117.443-.364.522zm-.695-.901c.288 0 .42-.135.42-.345 0-.204-.141-.35-.42-.35h-.317v.695z"/><clipPath id="nbdge"><use xlink:href="#nbdga"/></clipPath><clipPath id="nbdgk"><use xlink:href="#nbdgb"/></clipPath></defs><g><g transform="translate(-30 -36)"><g><use fill="#5700b5" xlink:href="#nbdgc"/></g><g><use fill="#5700b5" xlink:href="#nbdgd"/></g><g><g/><g clip-path="url(#nbdge)"><use fill="#5700b5" xlink:href="#nbdgf"/></g></g><g><use fill="#5700b5" xlink:href="#nbdgg"/></g><g><use fill="#5700b5" xlink:href="#nbdgh"/></g><g><use fill="#5700b5" xlink:href="#nbdgi"/></g><g><use fill="#5700b5" xlink:href="#nbdgj"/></g><g><g/><g clip-path="url(#nbdgk)"><use fill="#5700b5" xlink:href="#nbdgl"/></g></g></g></g></svg>